<?xml version="1.0" standalone="no"?><!DOCTYPE svg PUBLIC "-//W3C//DTD SVG 1.1//EN" "http://www.w3.org/Graphics/SVG/1.1/DTD/svg11.dtd"><svg t="1591065496991" class="icon" viewBox="0 0 1024 1024" version="1.1" xmlns="http://www.w3.org/2000/svg" p-id="17876" xmlns:xlink="http://www.w3.org/1999/xlink" width="200" height="200"><defs><style type="text/css"></style></defs><path d="M512 136.533333c50.688 0 99.84 9.898667 146.090667 29.525334 44.714667 18.944 84.821333 45.994667 119.381333 80.469333 34.474667 34.474667 61.610667 74.666667 80.469333 119.381333 19.626667 46.250667 29.525333 95.402667 29.525334 146.090667s-9.898667 99.84-29.525334 146.090667c-18.944 44.714667-45.994667 84.821333-80.469333 119.381333-34.474667 34.474667-74.666667 61.610667-119.381333 80.469333-46.250667 19.626667-95.402667 29.525333-146.090667 29.525334s-99.84-9.898667-146.090667-29.525334c-44.714667-18.944-84.821333-45.994667-119.381333-80.469333-34.474667-34.474667-61.610667-74.666667-80.469333-119.381333C146.432 611.84 136.533333 562.688 136.533333 512s9.898667-99.84 29.525334-146.090667c18.944-44.714667 45.994667-84.821333 80.469333-119.381333 34.474667-34.474667 74.666667-61.610667 119.381333-80.469333C412.16 146.432 461.312 136.533333 512 136.533333m0-51.2c-235.605333 0-426.666667 191.061333-426.666667 426.666667s191.061333 426.666667 426.666667 426.666667 426.666667-191.061333 426.666667-426.666667-191.061333-426.666667-426.666667-426.666667z" fill="#FF362B" p-id="17877"></path><path d="M659.882667 365.312l23.210666-34.730667c2.816-3.925333 3.925333-8.362667 3.925334-12.202666 0-9.472-6.656-17.749333-15.018667-22.186667-5.034667-2.816-9.984-4.437333-15.018667-4.437333-7.765333 0-15.018667 3.328-19.968 11.690666l-19.370666 30.293334c-31.146667-17.749333-67.157333-27.904-105.557334-27.904-39.424 0-76.373333 10.752-108.032 29.354666l-20.309333-31.744c-5.546667-8.362667-12.8-11.690667-19.968-11.690666-5.034667 0-9.984 1.706667-15.018667 3.925333-8.874667 5.034667-16.128 13.312-16.128 22.784 0 3.925333 1.109333 7.253333 3.328 11.093333l25.685334 38.4C322.730667 406.442667 298.666667 459.946667 298.666667 518.997333c0 117.845333 95.488 213.333333 213.333333 213.333334s213.333333-95.488 213.333333-213.333334c0-60.330667-25.088-114.858667-65.450666-153.685333zM537.6 655.36c0 5.632-4.608 10.24-10.24 10.24h-30.72c-5.632 0-10.24-4.608-10.24-10.24V483.84c0-5.632 4.608-10.24 10.24-10.24h30.72c5.632 0 10.24 4.608 10.24 10.24v171.52z" fill="#FF362B" p-id="17878"></path></svg>